<svg id="Layer_1" data-name="Layer 1" xmlns="http://www.w3.org/2000/svg" xmlns:xlink="http://www.w3.org/1999/xlink" viewBox="0 0 112.09 109.98">
  <defs>
    <style>
      .cls-1 {
        fill: none;
      }

      .cls-2 {
        fill: #fff;
      }

      .cls-3 {
        clip-path: url(#clip-path);
      }

      .cls-4 {
        fill: #eb847c;
      }

      .cls-5 {
        clip-path: url(#clip-path-2);
      }
    </style>
    <clipPath id="clip-path">
      <rect class="cls-1" x="17.19" y="41.38" width="38.7" height="38.7"/>
    </clipPath>
    <clipPath id="clip-path-2">
      <rect class="cls-1" x="58.42" y="24.57" width="38.7" height="38.7"/>
    </clipPath>
  </defs>
  <title>grupper</title>
  <rect id="Rectangle_1478" data-name="Rectangle 1478" class="cls-2" width="109.92" height="109.92"/>
  <g id="Group_1572" data-name="Group 1572">
    <g class="cls-3">
      <g id="Profile">
        <path id="Union_1" data-name="Union 1" class="cls-4" d="M17.19,80.08V75.24c0-5.32,8.71-9.67,19.35-9.67s19.35,4.35,19.35,9.67v4.84Zm9.67-29a9.68,9.68,0,1,1,9.68,9.67A9.69,9.69,0,0,1,26.86,51.06Z"/>
      </g>
    </g>
    <g class="cls-5">
      <g id="Profile-2">
        <path id="Union_1-2" data-name="Union 1-2" class="cls-4" d="M58.42,63.26V58.43c0-5.32,8.7-9.68,19.34-9.68s19.35,4.35,19.35,9.68v4.83Zm9.67-29a9.68,9.68,0,1,1,9.67,9.68A9.67,9.67,0,0,1,68.09,34.24Z"/>
      </g>
    </g>
  </g>
</svg>
