<svg id="Layer_1" data-name="Layer 1" xmlns="http://www.w3.org/2000/svg" width="137.8mm" height="34.79mm" viewBox="0 0 390.62 98.62"><defs><style>.cls-1{fill:#fff;}</style></defs><title>kealogo</title><g id="Group_1604" data-name="Group 1604"><g id="Artwork_2" data-name="Artwork 2"><g id="Artwork_2-2" data-name="Artwork 2-2"><path id="Path_115" data-name="Path 115" class="cls-1" d="M403.19,33.48H336.06V50.33h66c22.65,0,29.56,7.18,31.22,18.23H365.62c-25.14,0-36.47,9.67-36.47,31.49s11.33,31.76,36.75,31.76h84V75.74c.28-28.45-15.19-42.26-46.68-42.26m30.66,81.76h-66c-20.72,0-21.55-4.69-21.55-15.19s2.21-14.64,21.83-14.64h65.47Z" transform="translate(-59.26 -33.48)"/><path id="Path_116" data-name="Path 116" class="cls-1" d="M206.22,96.19h67.13c25.14,0,36.47-9.67,36.47-31.22s-11.05-31.49-36.74-31.49H237.16c-42.54,0-48.61,23.75-48.61,49.44s6.07,49.17,48.34,49.17h68.79V115.52H238.27c-23.2,0-29.83-6.08-32.06-19.06m32.06-46.68h33.15C291,49.78,293,54.47,293,65S291,79.34,271.14,79.34H205.4c.55-20.72,5.8-29.56,32.87-29.56" transform="translate(-59.26 -33.48)"/><path id="Path_117" data-name="Path 117" class="cls-1" d="M156,33.48,75.84,110V33.48H59.26V132.1H76.94l38.4-36.74L159,132.1h26.24L127.5,83.75,180,33.48Z" transform="translate(-59.26 -33.48)"/></g></g></g></svg>
