<svg id="Layer_1" data-name="Layer 1" xmlns="http://www.w3.org/2000/svg" xmlns:xlink="http://www.w3.org/1999/xlink" viewBox="0 0 109.78 106.84">
  <defs>
    <style>
      .cls-1 {
        fill: none;
      }

      .cls-2 {
        fill: #fff;
      }

      .cls-3 {
        clip-path: url(#clip-path);
      }

      .cls-4 {
        fill: #eb847c;
      }
    </style>
    <clipPath id="clip-path">
      <rect class="cls-1" x="24.39" y="23.46" width="60.87" height="60.87"/>
    </clipPath>
  </defs>
  <title>materialer</title>
  <rect id="Rectangle_1469" data-name="Rectangle 1469" class="cls-2" x="1.14" y="-1.06" width="109.92" height="109.92"/>
  <g class="cls-3">
    <g id="Folder">
      <path id="Path_178" data-name="Path 178" class="cls-4" d="M24.39,67.92V30.1a3.89,3.89,0,0,1,1.18-2.76,3.73,3.73,0,0,1,2.56-1H50a2.19,2.19,0,0,1,1.57.59,2.54,2.54,0,0,1,1.18,1.38l2,5.51h26.6A3.89,3.89,0,0,1,84.07,35a3.59,3.59,0,0,1,1.19,2.76V68.12a3.89,3.89,0,0,1-1.18,2.75,3.58,3.58,0,0,1-2.76,1.19H28.13a3.86,3.86,0,0,1-2.75-1.19A5.22,5.22,0,0,1,24.39,67.92Z"/>
      <rect id="Rectangle_1447" data-name="Rectangle 1447" class="cls-1" x="24.39" y="23.46" width="60.87" height="60.87"/>
    </g>
  </g>
</svg>
