<svg id="Layer_1" data-name="Layer 1" xmlns="http://www.w3.org/2000/svg" xmlns:xlink="http://www.w3.org/1999/xlink" viewBox="0 0 114.46 109.92">
  <defs>
    <style>
      .cls-1 {
        fill: none;
      }

      .cls-2 {
        fill: #fff;
      }

      .cls-3 {
        clip-path: url(#clip-path);
      }

      .cls-4 {
        fill: #eb847c;
        fill-rule: evenodd;
      }
    </style>
    <clipPath id="clip-path">
      <rect class="cls-1" x="29.1" y="26.78" width="56.26" height="56.26"/>
    </clipPath>
  </defs>
  <title>notifikationer</title>
  <rect id="Rectangle_1472" data-name="Rectangle 1472" class="cls-2" x="2.27" y="-0.06" width="109.92" height="109.92"/>
  <g class="cls-3">
    <g id="Alert">
      <rect id="Rectangle_479" data-name="Rectangle 479" class="cls-1" x="29.1" y="26.78" width="22.5" height="22.5"/>
      <path id="Path_1" data-name="Path 1" class="cls-4" d="M81.79,76H64.15A7.06,7.06,0,1,1,50,76H32.41a3.38,3.38,0,0,1-3.18-2.46,3.77,3.77,0,0,1,1.06-3.87,14.11,14.11,0,0,0,5.64-11.25V47.87a21.17,21.17,0,0,1,42.33,0V58.42A14.11,14.11,0,0,0,83.9,69.67,3.33,3.33,0,0,1,85,73.54,3.38,3.38,0,0,1,81.79,76Z"/>
    </g>
  </g>
</svg>
