<svg id="Layer_1" data-name="Layer 1" xmlns="http://www.w3.org/2000/svg" xmlns:xlink="http://www.w3.org/1999/xlink" viewBox="0 0 103.28 109.92">
  <defs>
    <style>
      .cls-1 {
        fill: none;
      }

      .cls-2 {
        fill: #fff;
      }

      .cls-3 {
        clip-path: url(#clip-path);
      }

      .cls-4 {
        fill: #eb847c;
        fill-rule: evenodd;
      }

      .cls-5, .cls-6 {
        isolation: isolate;
      }

      .cls-6 {
        font-size: 12px;
        fill: #f18d81;
        font-family: Gibson-SemiBold, Gibson;
        font-weight: 600;
      }

      .cls-7 {
        letter-spacing: 0.01em;
      }
    </style>
    <clipPath id="clip-path">
      <rect class="cls-1" x="33.14" y="26.94" width="40" height="40"/>
    </clipPath>
  </defs>
  <title>Artboard 3</title>
  <g id="Group_1568" data-name="Group 1568">
    <rect id="Rectangle_1472" data-name="Rectangle 1472" class="cls-2" x="-1.86" y="-0.06" width="109.92" height="109.92"/>
    <g class="cls-3">
      <g id="Alert">
        <rect id="Rectangle_479" data-name="Rectangle 479" class="cls-1" x="33.14" y="26.94" width="16" height="16"/>
        <path id="Path_1" data-name="Path 1" class="cls-4" d="M70.6,61.94H58.06a5,5,0,1,1-10,0H35.49a2.39,2.39,0,0,1-2.26-1.75A2.68,2.68,0,0,1,34,57.44a10.07,10.07,0,0,0,4-8v-7.5a15,15,0,0,1,30.09,0v7.5a10.06,10.06,0,0,0,4,8,2.35,2.35,0,0,1,.75,2.75A2.38,2.38,0,0,1,70.6,61.94Z"/>
      </g>
    </g>
    <g id="Notifikationer" class="cls-5">
      <text class="cls-6" transform="translate(14.53 86.94)">Notifi<tspan class="cls-7" x="30.97" y="0">k</tspan><tspan x="37.64" y="0">ationer</tspan></text>
    </g>
  </g>
</svg>
