<svg id="Layer_1" data-name="Layer 1" xmlns="http://www.w3.org/2000/svg" xmlns:xlink="http://www.w3.org/1999/xlink" viewBox="0 0 106.13 107.9">
  <defs>
    <style>
      .cls-1 {
        fill: none;
      }

      .cls-2 {
        fill: #fff;
      }

      .cls-3 {
        clip-path: url(#clip-path);
      }

      .cls-4 {
        fill: #eb847c;
        fill-rule: evenodd;
      }
    </style>
    <clipPath id="clip-path">
      <rect class="cls-1" x="22.39" y="27.16" width="61.35" height="53.49"/>
    </clipPath>
  </defs>
  <title>skema</title>
  <rect id="Rectangle_1471" data-name="Rectangle 1471" class="cls-2" x="-1.86" y="-1.06" width="109.92" height="109.92"/>
  <g class="cls-3">
    <g id="Calendar">
      <rect id="Rectangle_557" data-name="Rectangle 557" class="cls-1" x="22.39" y="27.16" width="24.54" height="21.4"/>
      <path id="Path_149" data-name="Path 149" class="cls-4" d="M30.06,43.88V74h46V43.88Zm42.18-10h7.67a3.48,3.48,0,0,1,3.83,3,2.41,2.41,0,0,1,0,.38V77.31a3.34,3.34,0,0,1-3.4,3.34H26.22a3.48,3.48,0,0,1-3.83-3,2.41,2.41,0,0,1,0-.38V37.19a3.34,3.34,0,0,1,3.4-3.34h8.1V30.5a3.35,3.35,0,0,1,3.4-3.34,3.23,3.23,0,0,1,.44,0,3.49,3.49,0,0,1,3.83,3,2.41,2.41,0,0,1,0,.38v3.35h23V30.5a3.87,3.87,0,0,1,7.67,0ZM68.4,67.28H60.73V60.59H68.4Zm-11.5,0H49.23V60.59H56.9Zm11.5-10H60.73V50.56H68.4Zm-11.5,0H49.23V50.56H56.9Zm-11.5,10H37.73V60.59H45.4Z"/>
    </g>
  </g>
</svg>
