<svg id="Layer_1" data-name="Layer 1" xmlns="http://www.w3.org/2000/svg" xmlns:xlink="http://www.w3.org/1999/xlink" viewBox="0 0 110.06 109.87">
  <defs>
    <style>
      .cls-1 {
        fill: none;
      }

      .cls-2 {
        fill: #fff;
      }

      .cls-3 {
        clip-path: url(#clip-path);
      }

      .cls-4 {
        fill: #eb847c;
      }
    </style>
    <clipPath id="clip-path">
      <rect class="cls-1" x="24.14" y="22.08" width="64.2" height="59.86"/>
    </clipPath>
  </defs>
  <title>sog</title>
  <rect id="Rectangle_1481" data-name="Rectangle 1481" class="cls-2" x="0.14" y="-0.06" width="109.92" height="109.92"/>
  <g class="cls-3">
    <g id="Search">
      <rect id="Rectangle_176" data-name="Rectangle 176" class="cls-1" x="24.14" y="22.08" width="25.68" height="23.95"/>
      <path id="Path_99" data-name="Path 99" class="cls-4" d="M88.18,76.54,74.89,64.14a24.61,24.61,0,0,0,5.64-15.77c.09-14.43-12.37-26.2-27.85-26.29h-.35c-15.47-.09-28.1,11.54-28.19,26v.32C24,62.8,36.51,74.57,52,74.66h.34A29,29,0,0,0,69.25,69.4L82.54,81.8Zm-56-28.17c-.1-10.27,8.74-18.68,19.75-18.78h.39c11-.1,20,8.14,20.14,18.41v.37c.11,10.27-8.73,18.68-19.74,18.78h-.4c-11,.1-20-8.14-20.14-18.41Z"/>
    </g>
  </g>
</svg>
