<svg id="Layer_1" data-name="Layer 1" xmlns="http://www.w3.org/2000/svg" xmlns:xlink="http://www.w3.org/1999/xlink" viewBox="0 0 110.06 109.87">
  <defs>
    <style>
      .cls-1 {
        fill: none;
      }

      .cls-2 {
        fill: #fff;
      }

      .cls-3, .cls-4 {
        isolation: isolate;
      }

      .cls-4 {
        font-size: 12px;
        fill: #f18d81;
        font-family: Gibson-SemiBold, Gibson;
        font-weight: 600;
      }

      .cls-5 {
        clip-path: url(#clip-path);
      }

      .cls-6 {
        fill: #eb847c;
      }
    </style>
    <clipPath id="clip-path">
      <rect class="cls-1" x="35.14" y="26.94" width="40" height="40"/>
    </clipPath>
  </defs>
  <title>søg</title>
  <g id="Group_1576" data-name="Group 1576">
    <rect id="Rectangle_1481" data-name="Rectangle 1481" class="cls-2" x="0.14" y="-0.06" width="109.92" height="109.92"/>
    <g id="Søg" class="cls-3">
      <text class="cls-4" transform="translate(44.48 88.94)">Søg</text>
    </g>
    <g class="cls-5">
      <g id="Search">
        <rect id="Rectangle_176" data-name="Rectangle 176" class="cls-1" x="35.14" y="26.94" width="16" height="16"/>
        <path id="Path_99" data-name="Path 99" class="cls-6" d="M75,63.33l-8.28-8.28a17.2,17.2,0,0,0,3.51-10.54A17.46,17.46,0,0,0,52.92,26.94H52.7A17.46,17.46,0,0,0,35.14,44.29v.22A17.46,17.46,0,0,0,52.49,62.08h.21a17.13,17.13,0,0,0,10.54-3.52l8.29,8.28ZM40.16,44.51A12.43,12.43,0,0,1,52.46,32h.24A12.43,12.43,0,0,1,65.25,44.27v.24A12.43,12.43,0,0,1,53,57.06H52.7a12.41,12.41,0,0,1-12.54-12.3Z"/>
      </g>
    </g>
  </g>
</svg>
